<svg width="30" height="23" viewBox="0 0 30 23" fill="none" xmlns="http://www.w3.org/2000/svg">
<path d="M25.435 1.94252C28.8231 6.95483 30.4963 12.6086 29.8708 19.1173C29.8682 19.1449 29.854 19.1702 29.8315 19.1868C27.2657 21.0824 24.7798 22.2329 22.3289 22.9958C22.3098 23.0016 22.2893 23.0013 22.2704 22.9949C22.2516 22.9885 22.2351 22.9762 22.2235 22.96C21.6572 22.1672 21.1427 21.3314 20.692 20.4538C20.6661 20.4021 20.6897 20.3399 20.743 20.3195C21.5601 20.0097 22.3371 19.6384 23.0845 19.1988C23.1434 19.1641 23.1471 19.0792 23.0927 19.0385C22.9341 18.92 22.777 18.7955 22.6266 18.671C22.5985 18.648 22.5606 18.6434 22.5287 18.6589C17.6766 20.9134 12.3614 20.9134 7.45188 18.6589C7.42 18.6446 7.38213 18.6495 7.35475 18.6721C7.20475 18.7966 7.04725 18.92 6.89013 19.0385C6.83575 19.0792 6.84025 19.1641 6.8995 19.1988C7.64688 19.6301 8.42387 20.0097 9.23987 20.321C9.29275 20.3414 9.31787 20.4021 9.29162 20.4538C8.85062 21.3326 8.33612 22.1683 7.75938 22.9611C7.73425 22.9932 7.693 23.0079 7.654 22.9958C5.21463 22.2329 2.72876 21.0824 0.163013 19.1868C0.141638 19.1702 0.126263 19.1437 0.124013 19.1162C-0.398736 13.4862 0.666637 7.78569 4.55576 1.94139C4.56513 1.92592 4.57938 1.91384 4.59588 1.90668C6.5095 1.02299 8.55962 0.372873 10.7024 0.0015906C10.7414 -0.00444651 10.7804 0.0136648 10.8006 0.0483782C11.0654 0.520027 11.368 1.12487 11.5727 1.61916C13.8314 1.27202 16.1252 1.27202 18.4311 1.61916C18.6359 1.13543 18.928 0.520027 19.1916 0.0483782C19.201 0.0311573 19.2155 0.0173608 19.2332 0.00895842C19.2508 0.000556062 19.2707 -0.00202259 19.2899 0.0015906C21.4337 0.374005 23.4838 1.02413 25.396 1.90668C25.4128 1.91384 25.4267 1.92592 25.435 1.94252V1.94252ZM12.721 12.6471C12.7446 10.9827 11.5386 9.6055 10.0247 9.6055C8.52325 9.6055 7.32888 10.9706 7.32888 12.6471C7.32888 14.3231 8.54687 15.6883 10.0247 15.6883C11.5266 15.6883 12.721 14.3231 12.721 12.6471V12.6471ZM22.6892 12.6471C22.7128 10.9827 21.5069 9.6055 19.9934 9.6055C18.4915 9.6055 17.2971 10.9706 17.2971 12.6471C17.2971 14.3231 18.5151 15.6883 19.9934 15.6883C21.5069 15.6883 22.6892 14.3231 22.6892 12.6471V12.6471Z" fill="white"/>
</svg>
