<svg width="25" height="27" viewBox="0 0 25 27" fill="none" xmlns="http://www.w3.org/2000/svg">
<g clip-path="url(#clip0_365_441)">
<path d="M12.5 2.3443C15.8398 2.3443 16.2354 2.35955 17.5488 2.42058C18.7695 2.47652 19.4287 2.6901 19.8682 2.86808C20.4492 3.102 20.8691 3.38677 21.3037 3.83936C21.7432 4.29703 22.0117 4.72928 22.2363 5.33442C22.4072 5.7921 22.6123 6.48369 22.666 7.74992C22.7246 9.12293 22.7393 9.53484 22.7393 13.0081C22.7393 16.4864 22.7246 16.8983 22.666 18.2662C22.6123 19.5375 22.4072 20.224 22.2363 20.6817C22.0117 21.2868 21.7383 21.7242 21.3037 22.1768C20.8643 22.6344 20.4492 22.9141 19.8682 23.148C19.4287 23.326 18.7646 23.5396 17.5488 23.5955C16.2305 23.6566 15.835 23.6718 12.5 23.6718C9.16016 23.6718 8.76465 23.6566 7.45117 23.5955C6.23047 23.5396 5.57129 23.326 5.13184 23.148C4.55078 22.9141 4.13086 22.6294 3.69629 22.1768C3.25684 21.7191 2.98828 21.2868 2.76367 20.6817C2.59277 20.224 2.3877 19.5324 2.33398 18.2662C2.27539 16.8932 2.26074 16.4813 2.26074 13.0081C2.26074 9.52975 2.27539 9.11785 2.33398 7.74992C2.3877 6.4786 2.59277 5.7921 2.76367 5.33442C2.98828 4.72928 3.26172 4.29195 3.69629 3.83936C4.13574 3.38169 4.55078 3.102 5.13184 2.86808C5.57129 2.6901 6.23535 2.47652 7.45117 2.42058C8.76465 2.35955 9.16016 2.3443 12.5 2.3443ZM12.5 0C9.10645 0 8.68164 0.0152557 7.34863 0.0762787C6.02051 0.137302 5.10742 0.361052 4.31641 0.681423C3.49121 1.01705 2.79297 1.45947 2.09961 2.18666C1.40137 2.90876 0.976562 3.63595 0.654297 4.49027C0.34668 5.31917 0.131836 6.26502 0.0732422 7.64821C0.0146484 9.04157 0 9.48399 0 13.0182C0 16.5525 0.0146484 16.9949 0.0732422 18.3832C0.131836 19.7664 0.34668 20.7173 0.654297 21.5411C0.976562 22.4005 1.40137 23.1277 2.09961 23.8498C2.79297 24.5719 3.49121 25.0194 4.31152 25.35C5.10742 25.6703 6.01562 25.8941 7.34375 25.9551C8.67676 26.0161 9.10156 26.0314 12.4951 26.0314C15.8887 26.0314 16.3135 26.0161 17.6465 25.9551C18.9746 25.8941 19.8877 25.6703 20.6787 25.35C21.499 25.0194 22.1973 24.5719 22.8906 23.8498C23.584 23.1277 24.0137 22.4005 24.3311 21.5462C24.6387 20.7173 24.8535 19.7714 24.9121 18.3883C24.9707 17 24.9854 16.5576 24.9854 13.0233C24.9854 9.48907 24.9707 9.04665 24.9121 7.65838C24.8535 6.2752 24.6387 5.32425 24.3311 4.50044C24.0234 3.63595 23.5986 2.90876 22.9004 2.18666C22.207 1.46455 21.5088 1.01705 20.6885 0.686508C19.8926 0.366138 18.9844 0.142387 17.6562 0.081364C16.3184 0.0152557 15.8936 0 12.5 0Z" fill="white"/>
<path d="M12.5 6.33105C8.95508 6.33105 6.0791 9.32627 6.0791 13.0182C6.0791 16.71 8.95508 19.7053 12.5 19.7053C16.0449 19.7053 18.9209 16.71 18.9209 13.0182C18.9209 9.32627 16.0449 6.33105 12.5 6.33105ZM12.5 17.3559C10.2002 17.3559 8.33496 15.4133 8.33496 13.0182C8.33496 10.623 10.2002 8.68044 12.5 8.68044C14.7998 8.68044 16.665 10.623 16.665 13.0182C16.665 15.4133 14.7998 17.3559 12.5 17.3559Z" fill="white"/>
<path d="M20.6738 6.06654C20.6738 6.93104 20 7.62772 19.1748 7.62772C18.3447 7.62772 17.6758 6.92595 17.6758 6.06654C17.6758 5.20205 18.3496 4.50537 19.1748 4.50537C20 4.50537 20.6738 5.20714 20.6738 6.06654Z" fill="white"/>
</g>
<defs>
<clipPath id="clip0_365_441">
<rect width="25" height="26.0365" fill="white"/>
</clipPath>
</defs>
</svg>
