<?xml version="1.0" encoding="UTF-8"?>
<svg id="Layer_1" data-name="Layer 1" xmlns="http://www.w3.org/2000/svg" xmlns:xlink="http://www.w3.org/1999/xlink" viewBox="0 0 1000.19 910.07">
  <defs>
    <style>
      .cls-1 {
        stroke-width: 10px;
      }

      .cls-1, .cls-2 {
        fill: #1c6590;
      }

      .cls-1, .cls-3 {
        stroke: #fff;
        stroke-miterlimit: 10;
      }

      .cls-4 {
        fill: #fff;
      }

      .cls-3 {
        stroke-width: 30px;
      }

      .cls-3, .cls-5 {
        fill: none;
      }

      .cls-6 {
        clip-path: url(#clippath-1);
      }

      .cls-7 {
        clip-path: url(#clippath);
      }
    </style>
    <clipPath id="clippath">
      <circle class="cls-5" cx="478.38" cy="455.03" r="455.03"/>
    </clipPath>
    <clipPath id="clippath-1">
      <rect class="cls-5" x="13.35" y="446.21" width="973.5" height="229.57" transform="translate(-113.38 126.88) rotate(-13)"/>
    </clipPath>
  </defs>
  <g class="cls-7">
    <circle class="cls-2" cx="478.38" cy="455.03" r="455.03"/>
    <circle class="cls-1" cx="478.38" cy="455.03" r="350"/>
    <circle class="cls-1" cx="478.38" cy="455.03" r="250"/>
    <ellipse class="cls-3" cx="476.74" cy="449.1" rx="440.66" ry="70" transform="translate(-88.81 118.75) rotate(-13)"/>
    <circle class="cls-4" cx="478.38" cy="455.03" r="150"/>
    <g class="cls-6">
      <g>
        <path class="cls-2" d="M821.79,328.76c50.08,0,81,6.88,84.31,21.21,8.7,37.67-176.49,112.59-413.62,167.33-146.9,33.92-279.26,52.13-360.8,52.13-50.08,0-81-6.88-84.31-21.21-8.7-37.67,176.49-112.59,413.62-167.33,146.9-33.92,279.26-52.13,360.8-52.13m0-40c-42.63,0-98.48,4.75-161.54,13.75-64.31,9.17-136.33,22.8-208.26,39.41-116.67,26.94-224.99,59.6-305,91.96-40.48,16.38-72.15,32.08-94.14,46.68-13.55,9-23.67,17.71-30.94,26.63-16.14,19.81-16.26,38.14-13.52,50.03,2.23,9.67,8.36,23.42,24.9,34.03,7.94,5.09,17.49,8.96,29.22,11.81,17.58,4.28,40.2,6.37,69.17,6.37,42.63,0,98.48-4.75,161.54-13.75,64.31-9.17,136.33-22.8,208.26-39.41,116.67-26.94,224.99-59.6,305-91.96,40.48-16.37,72.15-32.08,94.14-46.68,13.55-9,23.67-17.71,30.94-26.63,16.14-19.81,16.26-38.14,13.52-50.03-2.23-9.67-8.36-23.42-24.9-34.03-7.94-5.09-17.49-8.96-29.22-11.81-17.58-4.28-40.2-6.37-69.17-6.37h0Z"/>
        <ellipse class="cls-3" cx="476.74" cy="449.1" rx="440.66" ry="70" transform="translate(-88.81 118.75) rotate(-13)"/>
      </g>
    </g>
  </g>
</svg>