<svg width="290" height="280" viewBox="0 0 290 280" fill="none" xmlns="http://www.w3.org/2000/svg">
<circle cx="144.891" cy="140" r="140" fill="#1C6590"/>
<path d="M274.71 97.819C275.756 101.039 274.571 105.719 269.438 111.987C264.426 118.108 256.272 124.942 245.428 132.035C223.784 146.19 192.112 160.932 155.552 172.811C118.991 184.69 84.7032 191.38 58.8722 192.65C45.9307 193.286 35.3171 192.55 27.6644 190.544C19.8272 188.49 16.1174 185.4 15.0713 182.181C14.0253 178.961 15.2105 174.281 20.3433 168.012C25.3554 161.891 33.5094 155.057 44.3532 147.965C65.9972 133.809 97.6691 119.068 134.229 107.188C170.79 95.3092 205.078 88.6193 230.909 87.3496C243.85 86.7134 254.464 87.4493 262.117 89.4554C269.954 91.51 273.664 94.5995 274.71 97.819Z" fill="#1C6590" stroke="white" stroke-width="7"/>
</svg>
