<svg width="25" height="27" viewBox="0 0 25 27" fill="none" xmlns="http://www.w3.org/2000/svg">
<path d="M12.5 0C5.59659 0 0 5.82803 0 13.0182C0 20.2084 5.59659 26.0365 12.5 26.0365C19.4034 26.0365 25 20.2084 25 13.0182C25 5.82803 19.4034 0 12.5 0ZM18.5985 18.7666C18.3977 19.1368 18.0284 19.3451 17.6477 19.3451C17.4697 19.3451 17.286 19.2987 17.1174 19.2011C15.5568 18.2898 13.8561 17.7316 12.0587 17.5421C10.2576 17.3541 8.47917 17.5444 6.77083 18.1125C6.20076 18.3021 5.58713 17.974 5.40531 17.3793C5.2216 16.7837 5.53788 16.1468 6.10985 15.9562C8.10227 15.2933 10.1799 15.0678 12.2784 15.2899C14.3731 15.512 16.358 16.1629 18.1799 17.2265C18.7045 17.5306 18.892 18.2206 18.5985 18.7666ZM20.0947 14.8124C19.9015 15.1996 19.5227 15.4217 19.1307 15.4217C18.9602 15.4217 18.7898 15.381 18.6288 15.2933C16.7102 14.2526 14.6382 13.6082 12.4659 13.3786C10.2765 13.1453 8.10796 13.3486 6.01705 13.9767C5.4394 14.1475 4.83713 13.8035 4.67236 13.2021C4.50569 12.6017 4.83901 11.9744 5.41477 11.801C7.77461 11.0923 10.2216 10.8653 12.6856 11.1257C15.1326 11.3852 17.4697 12.1111 19.6345 13.2859C20.1648 13.5749 20.3731 14.2581 20.0947 14.8124ZM20.6364 11.5227C20.4735 11.5227 20.3087 11.4844 20.1515 11.404C17.875 10.2217 15.4261 9.48536 12.8712 9.21533C10.3125 8.94274 7.76705 9.1534 5.30303 9.83863C4.72348 9.99879 4.12878 9.64079 3.97348 9.03623C3.81818 8.43246 4.16289 7.81173 4.74433 7.65058C7.46213 6.89473 10.2727 6.66455 13.0928 6.96318C15.9091 7.26003 18.6099 8.07288 21.1212 9.37727C21.6591 9.65618 21.8769 10.3365 21.6098 10.8955C21.4205 11.2933 21.036 11.5227 20.6364 11.5227Z" fill="white"/>
</svg>
