<svg width="25" height="27" viewBox="0 0 25 27" fill="none" xmlns="http://www.w3.org/2000/svg">
<g clip-path="url(#clip0_365_438)">
<path d="M7.86475 23.5953C17.2964 23.5953 22.4565 15.4554 22.4565 8.3986C22.4565 8.16976 22.4517 7.93584 22.4419 7.707C23.4457 6.95097 24.312 6.01452 25 4.94165C24.0651 5.37483 23.0725 5.65774 22.0562 5.78071C23.1263 5.11263 23.9276 4.0631 24.3115 2.82669C23.3047 3.44808 22.2037 3.88642 21.0557 4.12292C20.2821 3.26692 19.2594 2.70014 18.1455 2.51022C17.0316 2.3203 15.8887 2.51782 14.8935 3.07222C13.8982 3.62663 13.106 4.50706 12.6394 5.57738C12.1728 6.64771 12.0577 7.84831 12.312 8.99357C10.2734 8.88703 8.2791 8.33551 6.45831 7.37475C4.63753 6.414 3.03093 5.06547 1.74268 3.41658C1.08792 4.59226 0.887559 5.98348 1.18232 7.30748C1.47709 8.63149 2.24486 9.78893 3.32959 10.5446C2.51524 10.5176 1.71872 10.2893 1.00586 9.8784V9.94451C1.00513 11.1783 1.41469 12.3743 2.16491 13.3292C2.91513 14.284 3.95971 14.9388 5.12109 15.1823C4.36672 15.3973 3.57498 15.4286 2.80713 15.2739C3.13485 16.3349 3.77247 17.263 4.63101 17.9285C5.48955 18.594 6.52617 18.9637 7.59619 18.9861C5.77961 20.4722 3.5356 21.2783 1.22559 21.2744C0.815924 21.2738 0.406666 21.2476 0 21.1961C2.34673 22.7641 5.07659 23.5969 7.86475 23.5953Z" fill="white"/>
</g>
<defs>
<clipPath id="clip0_365_438">
<rect width="25" height="26.0365" fill="white"/>
</clipPath>
</defs>
</svg>
