<svg width="25" height="27" viewBox="0 0 25 27" fill="none" xmlns="http://www.w3.org/2000/svg">
<path d="M24.751 7.8111C24.751 7.8111 24.5068 6.01601 23.7549 5.2278C22.8027 4.1904 21.7383 4.18532 21.25 4.1243C17.7539 3.85986 12.5049 3.85986 12.5049 3.85986H12.4951C12.4951 3.85986 7.24609 3.85986 3.75 4.1243C3.26172 4.18532 2.19727 4.1904 1.24512 5.2278C0.493164 6.01601 0.253906 7.8111 0.253906 7.8111C0.253906 7.8111 0 9.92148 0 12.0268V13.9998C0 16.1051 0.249023 18.2155 0.249023 18.2155C0.249023 18.2155 0.493164 20.0106 1.24023 20.7988C2.19238 21.8362 3.44238 21.8006 3.99902 21.9125C6.00098 22.1108 12.5 22.1718 12.5 22.1718C12.5 22.1718 17.7539 22.1617 21.25 21.9023C21.7383 21.8413 22.8027 21.8362 23.7549 20.7988C24.5068 20.0106 24.751 18.2155 24.751 18.2155C24.751 18.2155 25 16.1102 25 13.9998V12.0268C25 9.92148 24.751 7.8111 24.751 7.8111ZM9.91699 16.395V9.07733L16.6699 12.7489L9.91699 16.395Z" fill="white"/>
</svg>
